<?xml version="1.0" encoding="UTF-8" standalone="no"?>
<!-- Created with Inkscape (http://www.inkscape.org/) -->

<svg
   xmlns:dc="http://purl.org/dc/elements/1.1/"
   xmlns:cc="http://creativecommons.org/ns#"
   xmlns:rdf="http://www.w3.org/1999/02/22-rdf-syntax-ns#"
   xmlns:svg="http://www.w3.org/2000/svg"
   xmlns="http://www.w3.org/2000/svg"
   xmlns:xlink="http://www.w3.org/1999/xlink"
   xmlns:sodipodi="http://sodipodi.sourceforge.net/DTD/sodipodi-0.dtd"
   xmlns:inkscape="http://www.inkscape.org/namespaces/inkscape"
   width="750"
   height="500"
   viewBox="0 0 198.43749 132.29167"
   version="1.1"
   id="svg8"
   inkscape:version="0.92.3 (2405546, 2018-03-11)"
   sodipodi:docname="interleaved_sampling.svg">
  <sodipodi:namedview
     id="base"
     pagecolor="#ffffff"
     bordercolor="#666666"
     borderopacity="1.0"
     inkscape:pageopacity="0.0"
     inkscape:pageshadow="2"
     inkscape:zoom="1.979899"
     inkscape:cx="199.9566"
     inkscape:cy="420.5136"
     inkscape:document-units="mm"
     inkscape:current-layer="g1160"
     showgrid="false"
     units="px"
     inkscape:window-width="1920"
     inkscape:window-height="1015"
     inkscape:window-x="0"
     inkscape:window-y="0"
     inkscape:window-maximized="1"
     showguides="true"
     inkscape:guide-bbox="true">
    <inkscape:grid
       empspacing="8"
       dotted="false"
       id="grid1162"
       type="xygrid" />
    <sodipodi:guide
       position="93.738091,18.709822"
       orientation="0,1"
       id="guide10091"
       inkscape:locked="false" />
    <sodipodi:guide
       position="94.880678,110.24868"
       orientation="0,1"
       id="guide10093"
       inkscape:locked="false" />
  </sodipodi:namedview>
  <defs
     id="defs2">
    <circle
       id="gpDot"
       r="1"
       cx="0"
       cy="0" />
    <path
       id="gpPt0"
       style="stroke-width:0.133"
       d="M -1,0 H 1 M 0,-1 v 2"
       inkscape:connector-curvature="0" />
    <path
       id="gpPt1"
       style="stroke-width:0.133"
       d="M -1,-1 1,1 M 1,-1 -1,1"
       inkscape:connector-curvature="0" />
    <path
       id="gpPt2"
       style="stroke-width:0.133"
       d="M -1,0 H 1 M 0,-1 v 2 m -1,-2 2,2 m -2,0 2,-2"
       inkscape:connector-curvature="0" />
    <rect
       id="gpPt3"
       style="stroke-width:0.133"
       x="-1"
       y="-1"
       width="2"
       height="2" />
    <use
       xlink:href="#gpPt3"
       id="gpPt4"
       style="fill:currentColor;stroke:none"
       x="0"
       y="0"
       width="100%"
       height="100%" />
    <circle
       id="gpPt5"
       style="stroke-width:0.133"
       cx="0"
       cy="0"
       r="1" />
    <use
       xlink:href="#gpPt5"
       id="gpPt6"
       style="fill:currentColor;stroke:none"
       x="0"
       y="0"
       width="100%"
       height="100%" />
    <path
       id="gpPt7"
       style="stroke-width:0.133"
       d="m 0,-1.33 -1.33,2 h 2.66 z"
       inkscape:connector-curvature="0" />
    <use
       xlink:href="#gpPt7"
       id="gpPt8"
       style="fill:currentColor;stroke:none"
       x="0"
       y="0"
       width="100%"
       height="100%" />
    <use
       xlink:href="#gpPt7"
       id="gpPt9"
       transform="scale(-1)"
       x="0"
       y="0"
       width="100%"
       height="100%" />
    <use
       xlink:href="#gpPt9"
       id="gpPt10"
       style="fill:currentColor;stroke:none"
       x="0"
       y="0"
       width="100%"
       height="100%" />
    <use
       xlink:href="#gpPt3"
       id="gpPt11"
       transform="rotate(45)"
       x="0"
       y="0"
       width="100%"
       height="100%" />
    <use
       xlink:href="#gpPt11"
       id="gpPt12"
       style="fill:currentColor;stroke:none"
       x="0"
       y="0"
       width="100%"
       height="100%" />
  </defs>
  <metadata
     id="metadata5">
    <rdf:RDF>
      <cc:Work
         rdf:about="">
        <dc:format>image/svg+xml</dc:format>
        <dc:type
           rdf:resource="http://purl.org/dc/dcmitype/StillImage" />
        <dc:title></dc:title>
      </cc:Work>
    </rdf:RDF>
  </metadata>
  <g
     transform="translate(0,-164.70833)"
     id="layer1"
     inkscape:groupmode="layer"
     inkscape:label="Layer 1">
    <g
       transform="matrix(0.26458333,0,0,0.26458333,15.508383,98.084346)"
       id="g1160">
      <g
         style="color:#000000;fill:none;stroke:currentColor;stroke-width:1"
         id="g2355" />
      <text
         y="611"
         x="28"
         id="text2367"
         style="color:#000000;font-size:medium;font-family:'Times New Roman';text-anchor:end;fill:#000000;stroke:none;stroke-width:1" />
      <text
         y="380"
         x="28"
         id="text2379"
         style="color:#000000;font-size:medium;font-family:'Times New Roman';text-anchor:end;fill:#000000;stroke:none;stroke-width:1" />
      <text
         y="149"
         x="28"
         id="text2391"
         style="color:#000000;font-size:medium;font-family:'Times New Roman';text-anchor:end;fill:#000000;stroke:none;stroke-width:1" />
      <text
         y="757"
         x="41"
         id="text2403"
         style="color:#000000;font-size:medium;font-family:'Times New Roman';text-anchor:middle;fill:#000000;stroke:none;stroke-width:1" />
      <text
         y="757"
         x="194"
         id="text2415"
         style="color:#000000;font-size:medium;font-family:'Times New Roman';text-anchor:middle;fill:#000000;stroke:none;stroke-width:1" />
      <text
         y="757"
         x="347"
         id="text2427"
         style="color:#000000;font-size:medium;font-family:'Times New Roman';text-anchor:middle;fill:#000000;stroke:none;stroke-width:1" />
      <text
         y="757"
         x="500"
         id="text2439"
         style="color:#000000;font-size:medium;font-family:'Times New Roman';text-anchor:middle;fill:#000000;stroke:none;stroke-width:1" />
      <text
         y="757"
         x="653"
         id="text2451"
         style="color:#000000;font-size:medium;font-family:'Times New Roman';text-anchor:middle;fill:#000000;stroke:none;stroke-width:1" />
      <text
         y="757"
         x="806"
         id="text2463"
         style="color:#000000;font-size:medium;font-family:'Times New Roman';text-anchor:middle;fill:#000000;stroke:none;stroke-width:1" />
      <text
         y="757"
         x="959"
         id="text2475"
         style="color:#000000;font-size:medium;font-family:'Times New Roman';text-anchor:middle;fill:#000000;stroke:none;stroke-width:1" />
      <path
         inkscape:connector-curvature="0"
         id="path2359"
         d="M -47.546849,664.79688 H 581.17845"
         style="color:#808080;fill:none;stroke:#7f7f7f;stroke-width:3.42442966;stroke-miterlimit:4;stroke-dasharray:3.42442971, 6.84885942;stroke-dashoffset:0;stroke-opacity:1" />
      <path
         inkscape:connector-curvature="0"
         id="path2383"
         d="M -47.546849,348.37956 H 581.17845"
         style="color:#808080;fill:none;stroke:#7f7f7f;stroke-width:3.42442966;stroke-miterlimit:4;stroke-dasharray:3.42442971, 6.84885942;stroke-dashoffset:0;stroke-opacity:1" />
      <path
         inkscape:connector-curvature="0"
         id="path2419"
         d="M 162.02825,681.0929 V 335.11926"
         style="color:#808080;fill:none;stroke:#7f7f7f;stroke-width:3.42442966;stroke-miterlimit:4;stroke-dasharray:3.42442971, 6.84885942;stroke-dashoffset:0;stroke-opacity:1"
         sodipodi:nodetypes="cc" />
      <path
         inkscape:connector-curvature="0"
         id="path2443"
         d="M 371.60335,681.0929 V 335.11926"
         style="color:#808080;fill:none;stroke:#7f7f7f;stroke-width:3.42442966;stroke-miterlimit:4;stroke-dasharray:3.42442971, 6.84885942;stroke-dashoffset:0;stroke-opacity:1"
         sodipodi:nodetypes="cc" />
      <path
         id="path2363"
         d="m -47.546849,664.79688 m 628.725299,0"
         inkscape:connector-curvature="0"
         style="color:#000000;fill:none;stroke:#000000;stroke-width:0.68488592" />
      <path
         style="color:#808080;fill:none;stroke:#808080;stroke-width:1.36977184;stroke-miterlimit:4;stroke-dasharray:1.36977189, 2.73954376;stroke-dashoffset:0"
         id="path2371"
         d="M -47.546849,506.58822 H 581.17845"
         inkscape:connector-curvature="0" />
      <path
         id="path2375"
         d="m -47.546849,506.58822 m 628.725299,0"
         inkscape:connector-curvature="0"
         style="color:#000000;fill:none;stroke:#000000;stroke-width:0.68488592" />
      <path
         id="path2387"
         d="m -47.546849,348.37956 m 628.725299,0"
         inkscape:connector-curvature="0"
         style="color:#000000;fill:none;stroke:#000000;stroke-width:0.68488592" />
      <path
         id="path2399"
         d="m 46.453152,744.24364 m 0,-475.31084"
         inkscape:connector-curvature="0"
         style="color:#000000;fill:none;stroke:#000000;stroke-width:0.68488592" />
      <path
         id="path2411"
         d="m 151.2407,744.24364 m 0,-475.31084"
         inkscape:connector-curvature="0"
         style="color:#000000;fill:none;stroke:#000000;stroke-width:0.68488592" />
      <path
         id="path2423"
         d="m 256.02825,744.24364 m 0,-475.31084"
         inkscape:connector-curvature="0"
         style="color:#000000;fill:none;stroke:#000000;stroke-width:0.68488592" />
      <path
         id="path2435"
         d="m 360.8158,744.24364 m 0,-475.31084"
         inkscape:connector-curvature="0"
         style="color:#000000;fill:none;stroke:#000000;stroke-width:0.68488592" />
      <path
         id="path2447"
         d="m 465.60335,744.24364 m 0,-475.31084"
         inkscape:connector-curvature="0"
         style="color:#000000;fill:none;stroke:#000000;stroke-width:0.68488592" />
      <path
         id="path2459"
         d="m 570.39091,744.24364 m 0,-475.31084"
         inkscape:connector-curvature="0"
         style="color:#000000;fill:none;stroke:#000000;stroke-width:0.68488592" />
      <path
         id="path2471"
         d="m 675.17845,744.24364 m 0,-475.31084"
         inkscape:connector-curvature="0"
         style="color:#000000;fill:none;stroke:#000000;stroke-width:0.68488592" />
      <path
         style="color:#808080;fill:none;fill-opacity:1;stroke:#7f7f7f;stroke-width:3.42442966;stroke-miterlimit:4;stroke-dasharray:none;stroke-dashoffset:0;stroke-opacity:1"
         id="path2479"
         d="M -47.546849,506.58822 H 581.17845"
         inkscape:connector-curvature="0" />
      <path
         style="color:#ff0000;fill:none;stroke:#000000;stroke-width:3.52145052;stroke-linecap:round;stroke-linejoin:round;stroke-miterlimit:4;stroke-dasharray:none;stroke-opacity:1"
         id="path2487"
         d="m -47.546849,506.58822 6.163974,-15.06748 6.848858,-15.06749 6.163974,-14.38262 6.163974,-14.3826 6.163973,-13.69772 6.848858,-13.01284 6.1639757,-12.32794 6.1639741,-11.64307 6.1639779,-10.27328 6.8488503,-8.90351 6.16398,-8.21863 6.16397,-6.84887 6.84886,-6.16397 6.16397,-4.10931 6.16398,-2.73955 6.16397,-1.36978 h 6.84886 l 6.16397,1.36978 6.16397,2.73955 6.16398,4.10931 6.84886,6.16397 6.16398,6.84887 6.16397,8.21863 6.84886,8.90351 6.16397,10.27328 6.16398,11.64307 6.16397,12.32794 6.84886,13.01284 6.16397,13.69772 6.16397,14.3826 6.16398,14.38262 6.84885,15.06749 6.16398,15.06748 6.16397,15.06749 6.84886,15.06748 6.16397,14.38262 6.16398,14.38261 6.16397,13.69772 6.84887,13.01283 6.16397,12.32794 6.16397,11.64307 6.16398,10.27329 6.84886,8.9035 6.16397,8.21865 6.16398,6.84884 6.84885,6.16399 6.16398,4.1093 6.16397,2.73956 6.16398,1.36977 h 6.84885 l 6.16398,-1.36977 6.16396,-2.73956 6.16399,-4.1093 6.84884,-6.16399 6.16399,-6.84884 6.16396,-8.21865 6.84887,-8.9035 6.16396,-10.27329 6.16399,-11.64307 6.16396,-12.32794 6.84887,-13.01283 6.16397,-13.69772 6.16397,-14.38261 6.16398,-14.38262 6.84885,-15.06748 6.16398,-15.06749 6.16397,-15.06748 6.84886,-15.06749 6.16398,-14.38262 6.16397,-14.3826 6.16398,-13.69772 6.84885,-13.01284 6.16398,-12.32794 6.16396,-11.64307 6.16399,-10.27328 6.84884,-8.90351 6.16399,-8.21863 6.16396,-6.84887 6.84887,-6.16397 6.16396,-4.10931 6.16399,-2.73955 6.16396,-1.36978 h 6.84887 l 6.16396,1.36978 6.16398,2.73955 6.16397,4.10931 6.84886,6.16397 6.16398,6.84887 6.16397,8.21863 6.84886,8.90351 6.16398,10.27328 6.16397,11.64307 6.16398,12.32794 6.84885,13.01284 6.16398,13.69772 6.16396,14.3826 6.16399,14.38262 6.84887,15.06749 6.16396,15.06748"
         inkscape:connector-curvature="0" />
      <circle
         style="color:#ff0000;opacity:1;fill:#ea6b66;fill-opacity:1;stroke:#ea6b66;stroke-width:0.68488592;stroke-linecap:round;stroke-linejoin:round;stroke-miterlimit:4;stroke-dasharray:none;stroke-dashoffset:0;stroke-opacity:1"
         id="path1164"
         cx="-34.612057"
         cy="475.71579"
         r="5.4790874" />
      <circle
         cy="385.08484"
         cx="9.665657"
         id="circle1166"
         style="color:#ff0000;opacity:1;fill:#ea6b66;fill-opacity:1;stroke:#ea6b66;stroke-width:0.68488592;stroke-linecap:round;stroke-linejoin:round;stroke-miterlimit:4;stroke-dasharray:none;stroke-dashoffset:0;stroke-opacity:1"
         r="5.4790874" />
      <circle
         style="color:#ff0000;opacity:1;fill:#ea6b66;fill-opacity:1;stroke:#ea6b66;stroke-width:0.68488592;stroke-linecap:round;stroke-linejoin:round;stroke-miterlimit:4;stroke-dasharray:none;stroke-dashoffset:0;stroke-opacity:1"
         id="circle1184"
         cx="54.635208"
         cy="348.07147"
         r="5.4790874" />
      <circle
         cy="376.09094"
         cx="98.221077"
         id="circle1186"
         style="color:#ff0000;opacity:1;fill:#ea6b66;fill-opacity:1;stroke:#ea6b66;stroke-width:0.68488592;stroke-linecap:round;stroke-linejoin:round;stroke-miterlimit:4;stroke-dasharray:none;stroke-dashoffset:0;stroke-opacity:1"
         r="5.4790874" />
      <circle
         style="color:#ff0000;opacity:1;fill:#ea6b66;fill-opacity:1;stroke:#ea6b66;stroke-width:0.68488592;stroke-linecap:round;stroke-linejoin:round;stroke-miterlimit:4;stroke-dasharray:none;stroke-dashoffset:0;stroke-opacity:1"
         id="circle1188"
         cx="140.42328"
         cy="455.65247"
         r="5.4790874" />
      <circle
         cy="564.03387"
         cx="186.77652"
         id="circle1190"
         style="color:#ff0000;opacity:1;fill:#ea6b66;fill-opacity:1;stroke:#ea6b66;stroke-width:0.68488592;stroke-linecap:round;stroke-linejoin:round;stroke-miterlimit:4;stroke-dasharray:none;stroke-dashoffset:0;stroke-opacity:1"
         r="5.4790874" />
      <circle
         style="color:#ff0000;opacity:1;fill:#ea6b66;fill-opacity:1;stroke:#ea6b66;stroke-width:0.68488592;stroke-linecap:round;stroke-linejoin:round;stroke-miterlimit:4;stroke-dasharray:none;stroke-dashoffset:0;stroke-opacity:1"
         id="circle1192"
         cx="229.67056"
         cy="638.98987"
         r="5.4790874" />
      <circle
         cy="665.27972"
         cx="272.56461"
         id="circle1194"
         style="color:#ff0000;opacity:1;fill:#ea6b66;fill-opacity:1;stroke:#ea6b66;stroke-width:0.68488592;stroke-linecap:round;stroke-linejoin:round;stroke-miterlimit:4;stroke-dasharray:none;stroke-dashoffset:0;stroke-opacity:1"
         r="5.4790874" />
      <circle
         style="color:#ff0000;opacity:1;fill:#ea6b66;fill-opacity:1;stroke:#ea6b66;stroke-width:0.68488592;stroke-linecap:round;stroke-linejoin:round;stroke-miterlimit:4;stroke-dasharray:none;stroke-dashoffset:0;stroke-opacity:1"
         id="circle1196"
         cx="318.22595"
         cy="621.69397"
         r="5.4790874" />
      <circle
         cy="531.75476"
         cx="361.12003"
         id="circle1198"
         style="color:#ff0000;opacity:1;fill:#ea6b66;fill-opacity:1;stroke:#ea6b66;stroke-width:0.68488592;stroke-linecap:round;stroke-linejoin:round;stroke-miterlimit:4;stroke-dasharray:none;stroke-dashoffset:0;stroke-opacity:1"
         r="5.4790874" />
      <circle
         style="color:#ff0000;opacity:1;fill:#ea6b66;fill-opacity:1;stroke:#ea6b66;stroke-width:0.68488592;stroke-linecap:round;stroke-linejoin:round;stroke-miterlimit:4;stroke-dasharray:none;stroke-dashoffset:0;stroke-opacity:1"
         id="circle1200"
         cx="404.01404"
         cy="433.51367"
         r="5.4790874" />
      <circle
         cy="363.63785"
         cx="447.59991"
         id="circle1202"
         style="color:#ff0000;opacity:1;fill:#ea6b66;fill-opacity:1;stroke:#ea6b66;stroke-width:0.68488592;stroke-linecap:round;stroke-linejoin:round;stroke-miterlimit:4;stroke-dasharray:none;stroke-dashoffset:0;stroke-opacity:1"
         r="5.4790874" />
      <circle
         style="color:#ff0000;opacity:1;fill:#ea6b66;fill-opacity:1;stroke:#ea6b66;stroke-width:0.68488592;stroke-linecap:round;stroke-linejoin:round;stroke-miterlimit:4;stroke-dasharray:none;stroke-dashoffset:0;stroke-opacity:1"
         id="circle1204"
         cx="493.95319"
         cy="353.09961"
         r="5.4790874" />
      <circle
         cy="407.22375"
         cx="536.84711"
         id="circle1206"
         style="color:#ff0000;opacity:1;fill:#ea6b66;fill-opacity:1;stroke:#ea6b66;stroke-width:0.68488592;stroke-linecap:round;stroke-linejoin:round;stroke-miterlimit:4;stroke-dasharray:none;stroke-dashoffset:0;stroke-opacity:1"
         r="5.4790874" />
      <circle
         style="color:#ff0000;opacity:1;fill:#ea6b66;fill-opacity:1;stroke:#ea6b66;stroke-width:0.68488592;stroke-linecap:round;stroke-linejoin:round;stroke-miterlimit:4;stroke-dasharray:none;stroke-dashoffset:0;stroke-opacity:1"
         id="circle1208"
         cx="579.74121"
         cy="501.64246"
         r="5.4790874" />
      <circle
         cy="425.90338"
         cx="-11.781364"
         id="circle1229"
         style="color:#ff0000;opacity:1;fill:#6c8ebf;fill-opacity:0.99215686;stroke:#6c8ebf;stroke-width:0.68488592;stroke-linecap:round;stroke-linejoin:round;stroke-miterlimit:4;stroke-dasharray:none;stroke-dashoffset:0;stroke-opacity:0.99215686"
         r="5.4790874" />
      <circle
         style="color:#ff0000;opacity:1;fill:#6c8ebf;fill-opacity:0.99215686;stroke:#6c8ebf;stroke-width:0.68488592;stroke-linecap:round;stroke-linejoin:round;stroke-miterlimit:4;stroke-dasharray:none;stroke-dashoffset:0;stroke-opacity:0.99215686"
         id="circle1231"
         cx="32.496361"
         cy="359.48682"
         r="5.4790874" />
      <circle
         cy="353.95206"
         cx="75.390381"
         id="circle1233"
         style="color:#ff0000;opacity:1;fill:#6c8ebf;fill-opacity:0.99215686;stroke:#6c8ebf;stroke-width:0.68488592;stroke-linecap:round;stroke-linejoin:round;stroke-miterlimit:4;stroke-dasharray:none;stroke-dashoffset:0;stroke-opacity:0.99215686"
         r="5.4790874" />
      <circle
         style="color:#ff0000;opacity:1;fill:#6c8ebf;fill-opacity:0.99215686;stroke:#6c8ebf;stroke-width:0.68488592;stroke-linecap:round;stroke-linejoin:round;stroke-miterlimit:4;stroke-dasharray:none;stroke-dashoffset:0;stroke-opacity:0.99215686"
         id="circle1235"
         cx="119.66812"
         cy="411.37473"
         r="5.4790874" />
      <circle
         cy="506.84857"
         cx="163.25397"
         id="circle1237"
         style="color:#ff0000;opacity:1;fill:#6c8ebf;fill-opacity:0.99215686;stroke:#6c8ebf;stroke-width:0.68488592;stroke-linecap:round;stroke-linejoin:round;stroke-miterlimit:4;stroke-dasharray:none;stroke-dashoffset:0;stroke-opacity:0.99215686"
         r="5.4790874" />
      <circle
         style="color:#ff0000;opacity:1;fill:#6c8ebf;fill-opacity:0.99215686;stroke:#6c8ebf;stroke-width:0.68488592;stroke-linecap:round;stroke-linejoin:round;stroke-miterlimit:4;stroke-dasharray:none;stroke-dashoffset:0;stroke-opacity:0.99215686"
         id="circle1239"
         cx="206.83984"
         cy="604.31134"
         r="5.4790874" />
      <circle
         cy="661.12878"
         cx="251.11755"
         id="circle1241"
         style="color:#ff0000;opacity:1;fill:#6c8ebf;fill-opacity:0.99215686;stroke:#6c8ebf;stroke-width:0.68488592;stroke-linecap:round;stroke-linejoin:round;stroke-miterlimit:4;stroke-dasharray:none;stroke-dashoffset:0;stroke-opacity:0.99215686"
         r="5.4790874" />
      <circle
         style="color:#ff0000;opacity:1;fill:#6c8ebf;fill-opacity:0.99215686;stroke:#6c8ebf;stroke-width:0.68488592;stroke-linecap:round;stroke-linejoin:round;stroke-miterlimit:4;stroke-dasharray:none;stroke-dashoffset:0;stroke-opacity:0.99215686"
         id="circle1243"
         cx="295.39529"
         cy="650.75116"
         r="5.4790874" />
      <circle
         cy="578.7998"
         cx="340.36484"
         id="circle1245"
         style="color:#ff0000;opacity:1;fill:#6c8ebf;fill-opacity:0.99215686;stroke:#6c8ebf;stroke-width:0.68488592;stroke-linecap:round;stroke-linejoin:round;stroke-miterlimit:4;stroke-dasharray:none;stroke-dashoffset:0;stroke-opacity:0.99215686"
         r="5.4790874" />
      <circle
         style="color:#ff0000;opacity:1;fill:#6c8ebf;fill-opacity:0.99215686;stroke:#6c8ebf;stroke-width:0.68488592;stroke-linecap:round;stroke-linejoin:round;stroke-miterlimit:4;stroke-dasharray:none;stroke-dashoffset:0;stroke-opacity:0.99215686"
         id="circle1247"
         cx="381.87518"
         cy="484.01785"
         r="5.4790874" />
      <circle
         cy="390.6196"
         cx="426.15289"
         id="circle1249"
         style="color:#ff0000;opacity:1;fill:#6c8ebf;fill-opacity:0.99215686;stroke:#6c8ebf;stroke-width:0.68488592;stroke-linecap:round;stroke-linejoin:round;stroke-miterlimit:4;stroke-dasharray:none;stroke-dashoffset:0;stroke-opacity:0.99215686"
         r="5.4790874" />
      <circle
         style="color:#ff0000;opacity:1;fill:#6c8ebf;fill-opacity:0.99215686;stroke:#6c8ebf;stroke-width:0.68488592;stroke-linecap:round;stroke-linejoin:round;stroke-miterlimit:4;stroke-dasharray:none;stroke-dashoffset:0;stroke-opacity:0.99215686"
         id="circle1251"
         cx="469.73877"
         cy="348.41736"
         r="5.4790874" />
      <circle
         cy="374.17612"
         cx="514.70831"
         id="circle1253"
         style="color:#ff0000;opacity:1;fill:#6c8ebf;fill-opacity:0.99215686;stroke:#6c8ebf;stroke-width:0.68488592;stroke-linecap:round;stroke-linejoin:round;stroke-miterlimit:4;stroke-dasharray:none;stroke-dashoffset:0;stroke-opacity:0.99215686"
         r="5.4790874" />
      <circle
         style="color:#ff0000;opacity:1;fill:#6c8ebf;fill-opacity:0.99215686;stroke:#6c8ebf;stroke-width:0.68488592;stroke-linecap:round;stroke-linejoin:round;stroke-miterlimit:4;stroke-dasharray:none;stroke-dashoffset:0;stroke-opacity:0.99215686"
         id="circle1255"
         cx="557.60236"
         cy="451.18015"
         r="5.4790874" />
      <circle
         cy="312.48056"
         cx="54.819508"
         id="circle1257"
         style="color:#ff0000;opacity:1;fill:#ea6b66;fill-opacity:1;stroke:#ea6b66;stroke-width:1.11162579;stroke-linecap:round;stroke-linejoin:round;stroke-miterlimit:4;stroke-dasharray:none;stroke-dashoffset:0;stroke-opacity:1"
         r="8.8930063" />
      <circle
         cy="269.7699"
         cx="54.819508"
         id="circle1259"
         style="color:#ff0000;opacity:1;fill:#6c8ebf;fill-opacity:0.99215686;stroke:#6c8ebf;stroke-width:1.11162579;stroke-linecap:round;stroke-linejoin:round;stroke-miterlimit:4;stroke-dasharray:none;stroke-dashoffset:0;stroke-opacity:0.99215686"
         r="8.8930063" />
      <text
         id="text1458"
         y="-122.98492"
         x="78.766388"
         style="font-style:normal;font-variant:normal;font-weight:normal;font-stretch:normal;font-size:17.33333397px;line-height:1.25;font-family:'Arial Black';-inkscape-font-specification:'Arial Black, ';letter-spacing:0px;word-spacing:-0.99000001px;fill:#000000;fill-opacity:1;stroke:none"
         xml:space="preserve"><tspan
           y="-107.44421"
           x="78.766388"
           id="tspan1456"
           sodipodi:role="line" /></text>
      <g
         transform="matrix(2.3154945,0,0,2.3154945,-110.73393,47.881806)"
         id="g1551">
        <g
           style="font-style:normal;font-variant:normal;font-weight:normal;font-stretch:normal;letter-spacing:normal;word-spacing:normal;text-anchor:start;fill:none;fill-opacity:1;fill-rule:evenodd;stroke:#000000;stroke-linecap:butt;stroke-linejoin:miter;stroke-miterlimit:10.43299961;stroke-dasharray:none;stroke-dashoffset:0;stroke-opacity:1"
           word-spacing="normal"
           letter-spacing="normal"
           font-size-adjust="none"
           font-stretch="normal"
           font-weight="normal"
           font-variant="normal"
           font-style="normal"
           stroke-miterlimit="10.433"
           xml:space="preserve"
           transform="matrix(0.30000001,0,0,-0.30000001,-52.500001,222.75)"
           id="content"><path
             style="fill:#000000;stroke-width:0"
             inkscape:connector-curvature="0"
             id="path1540"
             d="m 478.19,431.11 v 0.31 l -0.01,0.34 -0.02,0.36 -0.02,0.37 -0.03,0.39 -0.04,0.39 -0.04,0.41 -0.06,0.41 -0.07,0.42 -0.07,0.43 -0.09,0.42 -0.1,0.43 -0.12,0.42 -0.12,0.42 -0.14,0.41 -0.16,0.41 -0.17,0.4 -0.18,0.38 -0.2,0.37 -0.22,0.36 -0.23,0.34 -0.25,0.32 -0.28,0.3 -0.29,0.27 -0.31,0.25 -0.16,0.12 -0.17,0.1 -0.17,0.1 -0.18,0.1 -0.18,0.08 -0.19,0.08 -0.19,0.07 -0.2,0.06 -0.21,0.05 -0.21,0.05 -0.22,0.03 -0.22,0.02 -0.23,0.02 h -0.23 l -0.05,-1.09 c 2.44,0 2.73,-3.19 2.73,-6.03 0,-2.44 -0.39,-4.99 -1.59,-9.92 h -10.41 c 0.85,3.2 1.85,7.18 3.83,10.72 1.36,2.43 3.19,5.23 5.44,5.23 l 0.05,1.09 c -6.92,0 -14.6,-14.04 -14.6,-25.45 0,-4.69 1.44,-10.22 5.99,-10.22 v 1.1 c -1.66,0 -2.71,1.45 -2.71,6.07 0,2.1 0.3,4.99 1.6,9.86 h 10.37 c -0.54,-2.28 -1.59,-6.51 -3.5,-10.11 -1.73,-3.39 -3.62,-5.82 -5.76,-5.82 v -1.1 c 7.01,0 14.59,14.3 14.59,25.46 z" /><path
             style="fill:#000000;stroke-width:0"
             inkscape:connector-curvature="0"
             id="path1542"
             d="m 528.4,422.5 h 0.13 0.15 0.14 l 0.08,0.01 h 0.07 l 0.07,0.01 0.07,0.01 0.07,0.01 0.07,0.01 0.07,0.01 0.07,0.02 0.06,0.02 0.06,0.02 0.06,0.02 0.06,0.03 0.06,0.03 0.05,0.04 0.05,0.03 0.05,0.05 0.04,0.04 0.04,0.05 0.02,0.03 0.02,0.03 0.01,0.02 0.02,0.03 0.01,0.03 0.02,0.04 0.01,0.03 0.01,0.04 0.01,0.03 0.01,0.04 0.01,0.04 v 0.04 l 0.01,0.04 v 0.04 0.04 0.05 c 0,1 -0.95,1 -1.64,1 H 498.6 c -0.71,0 -1.64,0 -1.64,-1 0,-0.98 0.93,-0.98 1.68,-0.98 z" /><path
             style="fill:#000000;stroke-width:0"
             inkscape:connector-curvature="0"
             id="path1544"
             d="m 528.44,412.82 h 0.07 0.06 l 0.14,0.01 h 0.14 0.07 l 0.07,0.01 0.07,0.01 h 0.07 l 0.06,0.01 0.07,0.02 0.07,0.01 0.06,0.02 0.07,0.02 0.06,0.02 0.06,0.02 0.06,0.03 0.05,0.03 0.05,0.04 0.05,0.04 0.05,0.04 0.04,0.05 0.02,0.02 0.02,0.03 0.02,0.02 0.02,0.03 0.01,0.03 0.02,0.03 0.01,0.03 0.02,0.03 0.01,0.04 0.01,0.03 0.01,0.04 0.01,0.04 0.01,0.04 v 0.04 l 0.01,0.04 v 0.04 0.05 0.04 c 0,1 -0.95,1 -1.68,1 h -29.76 c -0.75,0 -1.68,0 -1.68,-1 0,-1 0.93,-1 1.64,-1 z" /><path
             style="fill:#000000;stroke-width:0"
             inkscape:connector-curvature="0"
             id="path1546"
             d="m 569.64,422.14 -0.01,0.74 -0.01,0.75 -0.02,0.75 -0.03,0.74 -0.04,0.75 -0.06,0.74 -0.08,0.74 -0.1,0.73 -0.11,0.73 -0.14,0.73 -0.16,0.72 -0.19,0.72 -0.22,0.72 -0.24,0.7 -0.28,0.7 -0.15,0.35 -0.16,0.34 c -2.29,4.8 -6.38,5.6 -8.47,5.6 -2.99,0 -6.63,-1.3 -8.67,-5.94 -1.6,-3.44 -1.85,-7.33 -1.85,-11.31 0,-3.74 0.2,-8.22 2.25,-12 2.14,-4.03 5.78,-5.03 8.22,-5.03 v 1.09 c -1.94,0 -4.89,1.25 -5.78,6.03 -0.55,2.98 -0.55,7.56 -0.55,10.52 0,3.18 0,6.46 0.41,9.15 0.94,5.94 4.67,6.38 5.92,6.38 1.64,0 4.94,-0.89 5.88,-5.83 0.5,-2.78 0.5,-6.58 0.5,-9.7 0,-3.75 0,-7.13 -0.55,-10.32 -0.75,-4.73 -3.6,-6.23 -5.83,-6.23 v 0 -1.09 c 2.69,0 6.47,1.04 8.67,5.78 1.6,3.43 1.85,7.31 1.85,11.25 z" /><path
             style="fill:#000000;stroke-width:0"
             inkscape:connector-curvature="0"
             id="path1548"
             d="m 589.35,432.92 -0.01,0.39 -0.03,0.38 -0.05,0.38 -0.06,0.38 -0.09,0.36 -0.1,0.36 -0.12,0.35 -0.13,0.34 -0.15,0.33 -0.17,0.33 -0.18,0.31 -0.2,0.3 -0.21,0.3 -0.22,0.28 -0.24,0.27 -0.25,0.26 -0.26,0.24 -0.27,0.24 -0.28,0.22 -0.3,0.2 -0.3,0.19 -0.32,0.18 -0.32,0.17 -0.33,0.14 -0.34,0.14 -0.35,0.11 -0.35,0.1 -0.37,0.08 -0.36,0.07 -0.38,0.04 -0.37,0.03 -0.39,0.01 v -1.7 c 3.28,0 5.78,-2.66 5.78,-5.75 0,-3.25 -2.58,-5.78 -5.78,-5.78 v 0 c -3.26,0 -5.78,2.64 -5.78,5.75 0,3.23 2.58,5.78 5.78,5.78 v 1.7 c -4.17,0 -7.48,-3.37 -7.48,-7.45 0,-4.22 3.37,-7.5 7.48,-7.5 4.19,0 7.5,3.39 7.5,7.47 z" /></g>      </g>
      <g
         transform="matrix(2.3077192,0,0,2.3154945,-110.07472,90.689763)"
         id="g1747">
        <g
           style="font-style:normal;font-variant:normal;font-weight:normal;font-stretch:normal;letter-spacing:normal;word-spacing:normal;text-anchor:start;fill:none;fill-opacity:1;fill-rule:evenodd;stroke:#000000;stroke-linecap:butt;stroke-linejoin:miter;stroke-miterlimit:10.43299961;stroke-dasharray:none;stroke-dashoffset:0;stroke-opacity:1"
           id="g1745"
           transform="matrix(0.30000001,0,0,-0.30000001,-52.500001,222.75)"
           xml:space="preserve"
           stroke-miterlimit="10.433"
           font-style="normal"
           font-variant="normal"
           font-weight="normal"
           font-stretch="normal"
           font-size-adjust="none"
           letter-spacing="normal"
           word-spacing="normal"><path
             style="fill:#000000;stroke-width:0"
             inkscape:connector-curvature="0"
             d="m 478.19,431.11 v 0.31 l -0.01,0.34 -0.02,0.36 -0.02,0.37 -0.03,0.39 -0.04,0.39 -0.04,0.41 -0.06,0.41 -0.07,0.42 -0.07,0.43 -0.09,0.42 -0.1,0.43 -0.12,0.42 -0.12,0.42 -0.14,0.41 -0.16,0.41 -0.17,0.4 -0.18,0.38 -0.2,0.37 -0.22,0.36 -0.23,0.34 -0.25,0.32 -0.28,0.3 -0.29,0.27 -0.31,0.25 -0.16,0.12 -0.17,0.1 -0.17,0.1 -0.18,0.1 -0.18,0.08 -0.19,0.08 -0.19,0.07 -0.2,0.06 -0.21,0.05 -0.21,0.05 -0.22,0.03 -0.22,0.02 -0.23,0.02 h -0.23 l -0.05,-1.09 c 2.44,0 2.73,-3.19 2.73,-6.03 0,-2.44 -0.39,-4.99 -1.59,-9.92 h -10.41 c 0.85,3.2 1.85,7.18 3.83,10.72 1.36,2.43 3.19,5.23 5.44,5.23 l 0.05,1.09 c -6.92,0 -14.6,-14.04 -14.6,-25.45 0,-4.69 1.44,-10.22 5.99,-10.22 v 1.1 c -1.66,0 -2.71,1.45 -2.71,6.07 0,2.1 0.3,4.99 1.6,9.86 h 10.37 c -0.54,-2.28 -1.59,-6.51 -3.5,-10.11 -1.73,-3.39 -3.62,-5.82 -5.76,-5.82 v -1.1 c 7.01,0 14.59,14.3 14.59,25.46 z"
             id="path1731" /><path
             style="fill:#000000;stroke-width:0"
             inkscape:connector-curvature="0"
             d="m 528.4,422.5 h 0.13 0.15 0.14 l 0.08,0.01 h 0.07 l 0.07,0.01 0.07,0.01 0.07,0.01 0.07,0.01 0.07,0.01 0.07,0.02 0.06,0.02 0.06,0.02 0.06,0.02 0.06,0.03 0.06,0.03 0.05,0.04 0.05,0.03 0.05,0.05 0.04,0.04 0.04,0.05 0.02,0.03 0.02,0.03 0.01,0.02 0.02,0.03 0.01,0.03 0.02,0.04 0.01,0.03 0.01,0.04 0.01,0.03 0.01,0.04 0.01,0.04 v 0.04 l 0.01,0.04 v 0.04 0.04 0.05 c 0,1 -0.95,1 -1.64,1 H 498.6 c -0.71,0 -1.64,0 -1.64,-1 0,-0.98 0.93,-0.98 1.68,-0.98 z"
             id="path1733" /><path
             style="fill:#000000;stroke-width:0"
             inkscape:connector-curvature="0"
             d="m 528.44,412.82 h 0.07 0.06 l 0.14,0.01 h 0.14 0.07 l 0.07,0.01 0.07,0.01 h 0.07 l 0.06,0.01 0.07,0.02 0.07,0.01 0.06,0.02 0.07,0.02 0.06,0.02 0.06,0.02 0.06,0.03 0.05,0.03 0.05,0.04 0.05,0.04 0.05,0.04 0.04,0.05 0.02,0.02 0.02,0.03 0.02,0.02 0.02,0.03 0.01,0.03 0.02,0.03 0.01,0.03 0.02,0.03 0.01,0.04 0.01,0.03 0.01,0.04 0.01,0.04 0.01,0.04 v 0.04 l 0.01,0.04 v 0.04 0.05 0.04 c 0,1 -0.95,1 -1.68,1 h -29.76 c -0.75,0 -1.68,0 -1.68,-1 0,-1 0.93,-1 1.64,-1 z"
             id="path1735" /><path
             style="fill:#000000;stroke-width:0"
             inkscape:connector-curvature="0"
             d="m 561.35,438.09 v 0.05 0.06 0.05 0.05 0.05 0.05 0.04 0.05 0.04 0.04 0.04 0.04 0.04 l -0.01,0.03 v 0.04 0.03 l -0.01,0.07 -0.01,0.06 -0.01,0.05 -0.02,0.05 -0.01,0.05 -0.02,0.04 -0.02,0.04 -0.03,0.03 -0.03,0.03 -0.03,0.03 -0.03,0.03 -0.04,0.02 -0.05,0.02 -0.02,0.01 -0.03,0.01 h -0.02 l -0.03,0.01 -0.03,0.01 h -0.03 l -0.03,0.01 h -0.03 l -0.03,0.01 h -0.04 -0.03 l -0.04,0.01 h -0.04 -0.04 -0.04 -0.04 -0.05 l -0.04,0.01 h -0.05 -0.05 -0.05 -0.05 c -3.1,-3.19 -7.47,-3.19 -9.07,-3.19 v -1.55 c 1,0 3.94,0 6.52,1.3 v -25.81 c 0,-1.8 -0.14,-2.39 -4.63,-2.39 h -1.59 v -1.55 c 1.75,0.16 6.08,0.16 8.06,0.16 2,0 6.33,0 8.08,-0.16 v 1.55 H 566 c -4.49,0 -4.65,0.54 -4.65,2.39 z"
             id="path1737" /><path
             style="fill:#000000;stroke-width:0"
             inkscape:connector-curvature="0"
             d="m 587.06,424.23 0.34,0.18 0.32,0.17 0.32,0.19 0.31,0.19 0.31,0.19 0.29,0.2 0.29,0.2 0.28,0.2 0.27,0.21 0.26,0.22 0.26,0.21 0.24,0.23 0.23,0.22 0.23,0.24 0.21,0.23 0.21,0.24 0.19,0.24 0.18,0.25 0.17,0.25 0.16,0.26 0.15,0.26 0.14,0.27 0.12,0.27 0.12,0.27 0.1,0.28 0.09,0.28 0.07,0.28 0.06,0.29 0.05,0.29 0.04,0.3 0.02,0.3 v 0.31 c 0,4.59 -4.43,7.44 -8.97,7.44 l -0.04,-1.25 c 3.64,0 6.83,-2.6 6.83,-6.19 0,-2.83 -1.96,-5.22 -4.94,-6.97 l -6.17,3.98 c -2.3,1.5 -2.5,3.19 -2.5,4.04 0,3.04 3.25,5.14 6.78,5.14 l 0.04,1.25 c -4.98,0 -9.01,-3.69 -9.01,-8.33 0,-0.89 0.09,-3.14 2.19,-5.49 0.54,-0.59 2.39,-1.84 3.64,-2.68 l 1.14,-0.75 6.14,-3.88 c 1.39,-0.95 3.73,-2.45 3.73,-5.48 0,-3.69 -3.73,-6.28 -7.83,-6.28 -4.28,0 -7.87,3.09 -7.87,7.21 0,2.9 1.59,6.08 5.83,8.43 v 0 l -1.14,0.75 c -2.89,-1.44 -7.17,-4.24 -7.17,-9.18 0,-5.28 5.07,-8.6 10.31,-8.6 5.62,0 10.36,4.14 10.36,9.46 0,1.79 -0.55,4.04 -2.44,6.13 -0.95,1.05 -1.75,1.55 -4.94,3.53 z"
             id="path1739" /><path
             style="fill:#000000;stroke-width:0"
             inkscape:connector-curvature="0"
             d="m 619.55,422.14 v 0.74 l -0.01,0.75 -0.02,0.75 -0.04,0.74 -0.04,0.75 -0.06,0.74 -0.08,0.74 -0.09,0.73 -0.12,0.73 -0.14,0.73 -0.16,0.72 -0.19,0.72 -0.21,0.72 -0.25,0.7 -0.28,0.7 -0.15,0.35 -0.16,0.34 c -2.28,4.8 -6.37,5.6 -8.47,5.6 -2.98,0 -6.62,-1.3 -8.67,-5.94 -1.59,-3.44 -1.84,-7.33 -1.84,-11.31 0,-3.74 0.2,-8.22 2.25,-12 2.14,-4.03 5.78,-5.03 8.21,-5.03 v 1.09 c -1.93,0 -4.88,1.25 -5.78,6.03 -0.54,2.98 -0.54,7.56 -0.54,10.52 0,3.18 0,6.46 0.4,9.15 0.94,5.94 4.67,6.38 5.92,6.38 1.65,0 4.94,-0.89 5.88,-5.83 0.5,-2.78 0.5,-6.58 0.5,-9.7 0,-3.75 0,-7.13 -0.55,-10.32 -0.75,-4.73 -3.59,-6.23 -5.83,-6.23 v 0 -1.09 c 2.69,0 6.47,1.04 8.68,5.78 1.59,3.43 1.84,7.31 1.84,11.25 z"
             id="path1741" /><path
             style="fill:#000000;stroke-width:0"
             inkscape:connector-curvature="0"
             d="m 639.27,432.92 -0.01,0.39 -0.03,0.38 -0.04,0.38 -0.07,0.38 -0.09,0.36 -0.1,0.36 -0.12,0.35 -0.13,0.34 -0.15,0.33 -0.17,0.33 -0.18,0.31 -0.2,0.3 -0.21,0.3 -0.22,0.28 -0.24,0.27 -0.25,0.26 -0.26,0.24 -0.27,0.24 -0.28,0.22 -0.3,0.2 -0.3,0.19 -0.32,0.18 -0.32,0.17 -0.33,0.14 -0.34,0.14 -0.35,0.11 -0.35,0.1 -0.36,0.08 -0.37,0.07 -0.38,0.04 -0.37,0.03 -0.39,0.01 v -1.7 c 3.28,0 5.78,-2.66 5.78,-5.75 0,-3.25 -2.57,-5.78 -5.78,-5.78 v 0 c -3.26,0 -5.78,2.64 -5.78,5.75 0,3.23 2.58,5.78 5.78,5.78 v 1.7 c -4.17,0 -7.48,-3.37 -7.48,-7.45 0,-4.22 3.37,-7.5 7.48,-7.5 4.19,0 7.5,3.39 7.5,7.47 z"
             id="path1743" /></g>      </g>
      <g
         transform="matrix(1.9448865,0,0,1.9448865,-215.89098,81.688636)"
         id="g2723">
        <g
           style="font-style:normal;font-variant:normal;font-weight:normal;font-stretch:normal;letter-spacing:normal;word-spacing:normal;text-anchor:start;fill:none;fill-opacity:1;fill-rule:evenodd;stroke:#000000;stroke-linecap:butt;stroke-linejoin:miter;stroke-miterlimit:10.43299961;stroke-dasharray:none;stroke-dashoffset:0;stroke-opacity:1"
           id="g2721"
           transform="matrix(0.30000001,0,0,-0.30000001,-52.500001,222.75)"
           xml:space="preserve"
           stroke-miterlimit="10.433"
           font-style="normal"
           font-variant="normal"
           font-weight="normal"
           font-stretch="normal"
           font-size-adjust="none"
           letter-spacing="normal"
           word-spacing="normal"><path
             style="fill:#000000;stroke-width:0"
             inkscape:connector-curvature="0"
             d="m 464.44,411.93 -0.19,-0.3 -0.18,-0.29 -0.19,-0.28 -0.19,-0.26 -0.18,-0.25 -0.19,-0.23 -0.19,-0.22 -0.18,-0.21 -0.19,-0.2 -0.19,-0.18 -0.18,-0.17 -0.19,-0.16 -0.19,-0.15 -0.18,-0.14 -0.19,-0.13 -0.19,-0.12 -0.19,-0.11 -0.19,-0.1 -0.19,-0.09 -0.19,-0.09 -0.19,-0.07 -0.2,-0.07 -0.19,-0.07 -0.2,-0.05 -0.19,-0.05 -0.2,-0.04 -0.2,-0.04 -0.19,-0.03 -0.41,-0.05 -0.4,-0.03 c -0.61,-0.05 -1.05,-0.05 -1.05,-1 0,-0.3 0.25,-0.55 0.64,-0.55 1.34,0 2.89,0.16 4.28,0.16 1.64,0 3.39,-0.16 4.99,-0.16 0.29,0 0.95,0 0.95,0.95 0,0.55 -0.45,0.6 -0.8,0.6 -1.15,0.09 -2.34,0.5 -2.34,1.73 0,0.61 0.3,1.16 0.69,1.84 l 3.79,6.39 h 12.5 l -0.14,1.54 h -11.42 l 9.83,16.45 1.59,-16.45 0.14,-1.54 c 0.11,-1.04 0.8,-7.82 0.8,-8.32 0,-1.5 -2.59,-1.64 -3.58,-1.64 -0.7,0 -1.2,0 -1.2,-1 0,-0.55 0.59,-0.55 0.7,-0.55 2.03,0 4.19,0.16 6.22,0.16 1.25,0 4.39,-0.16 5.64,-0.16 0.3,0 0.89,0 0.89,1 0,0.55 -0.5,0.55 -1.14,0.55 -3.09,0 -3.09,0.34 -3.25,1.79 l -3.03,31.13 c -0.11,1 -0.11,1.2 -0.95,1.2 -0.8,0 -0.99,-0.34 -1.3,-0.84 z"
             id="path2713" /><path
             style="fill:#000000;stroke-width:0"
             inkscape:connector-curvature="0"
             d="m 500.76,410.09 -0.05,-0.18 -0.04,-0.17 -0.05,-0.16 -0.04,-0.15 -0.04,-0.15 -0.05,-0.13 -0.05,-0.13 -0.05,-0.12 -0.05,-0.11 -0.06,-0.11 -0.07,-0.1 -0.07,-0.09 -0.08,-0.09 -0.08,-0.07 -0.1,-0.08 -0.1,-0.06 -0.11,-0.07 -0.13,-0.05 -0.13,-0.05 -0.15,-0.05 -0.16,-0.04 -0.09,-0.02 -0.09,-0.01 -0.09,-0.02 -0.1,-0.02 -0.1,-0.01 -0.1,-0.01 -0.11,-0.01 -0.12,-0.02 -0.11,-0.01 -0.13,-0.01 h -0.12 l -0.13,-0.01 -0.14,-0.01 h -0.14 l -0.14,-0.01 h -0.15 l -0.16,-0.01 h -0.16 -0.16 -0.18 -0.17 -0.18 c -0.85,0 -1.39,0 -1.39,-0.96 0,-0.59 0.43,-0.59 1.39,-0.59 h 16.48 l -0.89,1.55 h -5.62 c -0.71,0 -0.8,0 -1.11,0.04 -0.49,0.05 -0.64,0.1 -0.64,0.5 0,0.14 0,0.25 0.25,1.14 l 6.82,27.36 c 0.44,1.74 0.55,1.89 2.69,1.89 h 5.33 c 4.89,0 9.01,-2.64 9.01,-9.22 0,-2.43 -1,-10.6 -5.23,-16.09 -1.44,-1.84 -5.37,-5.62 -11.5,-5.62 l 0.89,-1.55 c 10.36,0 20.19,10.51 20.19,21.42 0,7.03 -4.24,12.61 -11.72,12.61 h -16.73 c -0.96,0 -1.5,0 -1.5,-0.95 0,-0.6 0.45,-0.6 1.45,-0.6 0.64,0 1.55,-0.04 2.14,-0.09 0.8,-0.11 1.09,-0.25 1.09,-0.8 0,-0.2 -0.04,-0.36 -0.2,-0.95 z"
             id="path2715" /><path
             style="fill:#000000;stroke-width:0"
             inkscape:connector-curvature="0"
             d="m 573.41,440.82 v 0.02 0.02 0.01 0.02 0.02 l -0.01,0.02 v 0.02 l -0.01,0.02 v 0.02 l -0.01,0.02 -0.01,0.02 -0.01,0.02 -0.01,0.02 -0.01,0.02 -0.02,0.02 -0.01,0.02 -0.02,0.02 -0.01,0.02 -0.02,0.02 -0.02,0.02 -0.02,0.01 -0.03,0.02 -0.02,0.01 -0.03,0.02 -0.02,0.01 -0.02,0.01 h -0.01 l -0.02,0.01 h -0.02 l -0.01,0.01 H 573.02 573 l -0.01,0.01 h -0.02 -0.02 -0.02 -0.02 -0.02 -0.02 c -0.14,0 -0.21,-0.04 -0.75,-0.59 l -3.49,-3.84 c -0.43,0.7 -2.73,4.43 -8.26,4.43 -11.11,0 -22.33,-11.01 -22.33,-22.56 0,-8.23 5.89,-13.65 13.51,-13.65 4.33,0 8.11,1.98 10.75,4.28 4.65,4.09 5.49,8.62 5.49,8.76 0,0.5 -0.5,0.5 -0.59,0.5 -0.3,0 -0.55,-0.09 -0.66,-0.5 -0.44,-1.44 -1.59,-4.98 -5.03,-7.87 -3.44,-2.78 -6.58,-3.63 -9.16,-3.63 -4.48,0 -9.76,2.6 -9.76,10.36 0,2.85 1.04,10.91 6.01,16.74 3.05,3.54 7.74,6.03 12.16,6.03 5.09,0 8.03,-3.83 8.03,-9.61 0,-2 -0.16,-2.05 -0.16,-2.55 0,-0.5 0.55,-0.5 0.75,-0.5 0.64,0 0.64,0.11 0.89,1 z"
             id="path2717" /><path
             style="fill:#000000;stroke-width:0"
             inkscape:connector-curvature="0"
             d="m 582.87,420.92 v 0.04 0.04 0.05 0.04 0.03 0.04 0.04 0.03 l -0.01,0.04 v 0.03 0.03 0.03 0.03 l -0.01,0.03 v 0.03 0.02 l -0.01,0.03 v 0.02 l -0.01,0.03 v 0.02 l -0.02,0.04 -0.01,0.04 -0.02,0.03 -0.02,0.03 -0.02,0.03 -0.02,0.03 -0.03,0.02 -0.03,0.02 -0.03,0.02 -0.04,0.01 -0.04,0.01 -0.05,0.02 h -0.02 -0.02 l -0.03,0.01 h -0.03 l -0.02,0.01 h -0.03 -0.03 -0.03 -0.04 l -0.03,0.01 h -0.03 -0.04 -0.03 -0.04 -0.04 -0.04 -0.04 -0.05 -0.04 -0.05 c -2.23,-2.2 -5.39,-2.23 -6.82,-2.23 v -1.25 c 0.84,0 3.14,0 5.04,0.97 v -17.77 c 0,-1.16 0,-1.61 -3.48,-1.61 h -1.31 v -1.25 c 0.62,0.03 4.9,0.14 6.2,0.14 1.08,0 5.47,-0.11 6.23,-0.14 v 1.25 h -1.33 c -3.48,0 -3.48,0.45 -3.48,1.61 z"
             id="path2719" /></g>      </g>
      <g
         id="g2955"
         transform="matrix(1.9448865,0,0,1.9448865,-216.21481,124.49658)">
        <g
           word-spacing="normal"
           letter-spacing="normal"
           font-size-adjust="none"
           font-stretch="normal"
           font-weight="normal"
           font-variant="normal"
           font-style="normal"
           stroke-miterlimit="10.433"
           xml:space="preserve"
           transform="matrix(0.30000001,0,0,-0.30000001,-52.500001,222.75)"
           id="g2953"
           style="font-style:normal;font-variant:normal;font-weight:normal;font-stretch:normal;letter-spacing:normal;word-spacing:normal;text-anchor:start;fill:none;fill-opacity:1;fill-rule:evenodd;stroke:#000000;stroke-linecap:butt;stroke-linejoin:miter;stroke-miterlimit:10.43299961;stroke-dasharray:none;stroke-dashoffset:0;stroke-opacity:1"><path
             id="path2945"
             d="m 464.44,411.93 -0.19,-0.3 -0.18,-0.29 -0.19,-0.28 -0.19,-0.26 -0.18,-0.25 -0.19,-0.23 -0.19,-0.22 -0.18,-0.21 -0.19,-0.2 -0.19,-0.18 -0.18,-0.17 -0.19,-0.16 -0.19,-0.15 -0.18,-0.14 -0.19,-0.13 -0.19,-0.12 -0.19,-0.11 -0.19,-0.1 -0.19,-0.09 -0.19,-0.09 -0.19,-0.07 -0.2,-0.07 -0.19,-0.07 -0.2,-0.05 -0.19,-0.05 -0.2,-0.04 -0.2,-0.04 -0.19,-0.03 -0.41,-0.05 -0.4,-0.03 c -0.61,-0.05 -1.05,-0.05 -1.05,-1 0,-0.3 0.25,-0.55 0.64,-0.55 1.34,0 2.89,0.16 4.28,0.16 1.64,0 3.39,-0.16 4.99,-0.16 0.29,0 0.95,0 0.95,0.95 0,0.55 -0.45,0.6 -0.8,0.6 -1.15,0.09 -2.34,0.5 -2.34,1.73 0,0.61 0.3,1.16 0.69,1.84 l 3.79,6.39 h 12.5 l -0.14,1.54 h -11.42 l 9.83,16.45 1.59,-16.45 0.14,-1.54 c 0.11,-1.04 0.8,-7.82 0.8,-8.32 0,-1.5 -2.59,-1.64 -3.58,-1.64 -0.7,0 -1.2,0 -1.2,-1 0,-0.55 0.59,-0.55 0.7,-0.55 2.03,0 4.19,0.16 6.22,0.16 1.25,0 4.39,-0.16 5.64,-0.16 0.3,0 0.89,0 0.89,1 0,0.55 -0.5,0.55 -1.14,0.55 -3.09,0 -3.09,0.34 -3.25,1.79 l -3.03,31.13 c -0.11,1 -0.11,1.2 -0.95,1.2 -0.8,0 -0.99,-0.34 -1.3,-0.84 z"
             inkscape:connector-curvature="0"
             style="fill:#000000;stroke-width:0" /><path
             id="path2947"
             d="m 500.76,410.09 -0.05,-0.18 -0.04,-0.17 -0.05,-0.16 -0.04,-0.15 -0.04,-0.15 -0.05,-0.13 -0.05,-0.13 -0.05,-0.12 -0.05,-0.11 -0.06,-0.11 -0.07,-0.1 -0.07,-0.09 -0.08,-0.09 -0.08,-0.07 -0.1,-0.08 -0.1,-0.06 -0.11,-0.07 -0.13,-0.05 -0.13,-0.05 -0.15,-0.05 -0.16,-0.04 -0.09,-0.02 -0.09,-0.01 -0.09,-0.02 -0.1,-0.02 -0.1,-0.01 -0.1,-0.01 -0.11,-0.01 -0.12,-0.02 -0.11,-0.01 -0.13,-0.01 h -0.12 l -0.13,-0.01 -0.14,-0.01 h -0.14 l -0.14,-0.01 h -0.15 l -0.16,-0.01 h -0.16 -0.16 -0.18 -0.17 -0.18 c -0.85,0 -1.39,0 -1.39,-0.96 0,-0.59 0.43,-0.59 1.39,-0.59 h 16.48 l -0.89,1.55 h -5.62 c -0.71,0 -0.8,0 -1.11,0.04 -0.49,0.05 -0.64,0.1 -0.64,0.5 0,0.14 0,0.25 0.25,1.14 l 6.82,27.36 c 0.44,1.74 0.55,1.89 2.69,1.89 h 5.33 c 4.89,0 9.01,-2.64 9.01,-9.22 0,-2.43 -1,-10.6 -5.23,-16.09 -1.44,-1.84 -5.37,-5.62 -11.5,-5.62 l 0.89,-1.55 c 10.36,0 20.19,10.51 20.19,21.42 0,7.03 -4.24,12.61 -11.72,12.61 h -16.73 c -0.96,0 -1.5,0 -1.5,-0.95 0,-0.6 0.45,-0.6 1.45,-0.6 0.64,0 1.55,-0.04 2.14,-0.09 0.8,-0.11 1.09,-0.25 1.09,-0.8 0,-0.2 -0.04,-0.36 -0.2,-0.95 z"
             inkscape:connector-curvature="0"
             style="fill:#000000;stroke-width:0" /><path
             id="path2949"
             d="m 573.41,440.82 v 0.02 0.02 0.01 0.02 0.02 l -0.01,0.02 v 0.02 l -0.01,0.02 v 0.02 l -0.01,0.02 -0.01,0.02 -0.01,0.02 -0.01,0.02 -0.01,0.02 -0.02,0.02 -0.01,0.02 -0.02,0.02 -0.01,0.02 -0.02,0.02 -0.02,0.02 -0.02,0.01 -0.03,0.02 -0.02,0.01 -0.03,0.02 -0.02,0.01 -0.02,0.01 h -0.01 l -0.02,0.01 h -0.02 l -0.01,0.01 H 573.02 573 l -0.01,0.01 h -0.02 -0.02 -0.02 -0.02 -0.02 -0.02 c -0.14,0 -0.21,-0.04 -0.75,-0.59 l -3.49,-3.84 c -0.43,0.7 -2.73,4.43 -8.26,4.43 -11.11,0 -22.33,-11.01 -22.33,-22.56 0,-8.23 5.89,-13.65 13.51,-13.65 4.33,0 8.11,1.98 10.75,4.28 4.65,4.09 5.49,8.62 5.49,8.76 0,0.5 -0.5,0.5 -0.59,0.5 -0.3,0 -0.55,-0.09 -0.66,-0.5 -0.44,-1.44 -1.59,-4.98 -5.03,-7.87 -3.44,-2.78 -6.58,-3.63 -9.16,-3.63 -4.48,0 -9.76,2.6 -9.76,10.36 0,2.85 1.04,10.91 6.01,16.74 3.05,3.54 7.74,6.03 12.16,6.03 5.09,0 8.03,-3.83 8.03,-9.61 0,-2 -0.16,-2.05 -0.16,-2.55 0,-0.5 0.55,-0.5 0.75,-0.5 0.64,0 0.64,0.11 0.89,1 z"
             inkscape:connector-curvature="0"
             style="fill:#000000;stroke-width:0" /><path
             id="path2951"
             d="m 588.79,405.11 h -1.19 c -0.09,-0.77 -0.45,-2.83 -0.9,-3.18 -0.27,-0.2 -2.95,-0.2 -3.44,-0.2 h -6.42 c 3.66,3.23 4.88,4.2 6.97,5.84 2.58,2.07 4.98,4.22 4.98,7.54 0,4.21 -3.69,6.79 -8.15,6.79 -4.32,0 -7.25,-3.03 -7.25,-6.23 0,-1.78 1.5,-1.96 1.86,-1.96 0.82,0 1.84,0.6 1.84,1.85 0,0.62 -0.25,1.84 -2.06,1.84 1.07,2.47 3.45,3.24 5.09,3.24 3.48,0 5.3,-2.71 5.3,-5.53 0,-3.04 -2.16,-5.44 -3.28,-6.69 l -8.39,-8.3 c -0.36,-0.31 -0.36,-0.39 -0.36,-1.36 h 14.36 z"
             inkscape:connector-curvature="0"
             style="fill:#000000;stroke-width:0" /></g>      </g>
    </g>
  </g>
</svg>
